<svg width="8" height="8" viewBox="0 0 8 8" fill="none" xmlns="http://www.w3.org/2000/svg">
<path fill-rule="evenodd" clip-rule="evenodd" d="M4.00004 1C2.34319 1 1.00004 2.34315 1.00004 4C1.00004 5.65685 2.34319 7 4.00004 7C5.65689 7 7.00004 5.65685 7.00004 4C7.00004 2.34315 5.65689 1 4.00004 1ZM0.333374 4C0.333374 1.97496 1.975 0.333333 4.00004 0.333333C6.02508 0.333333 7.66671 1.97496 7.66671 4C7.66671 6.02504 6.02508 7.66667 4.00004 7.66667C1.975 7.66667 0.333374 6.02504 0.333374 4Z" fill="black"/>
<path fill-rule="evenodd" clip-rule="evenodd" d="M4.00002 1.66667C4.18412 1.66667 4.33335 1.81591 4.33335 2V3.79399L5.48242 4.36852C5.64708 4.45085 5.71383 4.65108 5.6315 4.81574C5.54917 4.9804 5.34894 5.04714 5.18428 4.96481L3.85095 4.29814C3.73802 4.24168 3.66669 4.12626 3.66669 4V2C3.66669 1.81591 3.81593 1.66667 4.00002 1.66667Z" fill="black"/>
</svg>
