<svg width="8" height="8" viewBox="0 0 8 8" fill="none" xmlns="http://www.w3.org/2000/svg">
<path fill-rule="evenodd" clip-rule="evenodd" d="M1.39337 0.999999C1.17614 0.999999 1.00004 1.1761 1.00004 1.39333V6.60667C1.00004 6.8239 1.17614 7 1.39337 7H6.60671C6.82394 7 7.00004 6.8239 7.00004 6.60667V1.39333C7.00004 1.1761 6.82394 0.999999 6.60671 0.999999H1.39337ZM0.333374 1.39333C0.333374 0.80791 0.807952 0.333332 1.39337 0.333332H6.60671C7.19213 0.333332 7.66671 0.80791 7.66671 1.39333V6.60667C7.66671 7.19209 7.19213 7.66667 6.60671 7.66667H1.39337C0.807952 7.66667 0.333374 7.19209 0.333374 6.60667V1.39333Z" fill="black"/>
<path fill-rule="evenodd" clip-rule="evenodd" d="M2.33333 0.333332C2.51743 0.333332 2.66667 0.48257 2.66667 0.666665V7.33333C2.66667 7.51743 2.51743 7.66667 2.33333 7.66667C2.14924 7.66667 2 7.51743 2 7.33333V0.666665C2 0.48257 2.14924 0.333332 2.33333 0.333332Z" fill="black"/>
<path fill-rule="evenodd" clip-rule="evenodd" d="M5.66671 0.333332C5.8508 0.333332 6.00004 0.48257 6.00004 0.666665V7.33333C6.00004 7.51743 5.8508 7.66667 5.66671 7.66667C5.48261 7.66667 5.33337 7.51743 5.33337 7.33333V0.666665C5.33337 0.48257 5.48261 0.333332 5.66671 0.333332Z" fill="black"/>
<path fill-rule="evenodd" clip-rule="evenodd" d="M0.333374 4C0.333374 3.8159 0.482612 3.66667 0.666707 3.66667H7.33337C7.51747 3.66667 7.66671 3.8159 7.66671 4C7.66671 4.18409 7.51747 4.33333 7.33337 4.33333H0.666707C0.482612 4.33333 0.333374 4.18409 0.333374 4Z" fill="black"/>
<path fill-rule="evenodd" clip-rule="evenodd" d="M0.333374 2.33333C0.333374 2.14924 0.482612 2 0.666707 2H2.33337C2.51747 2 2.66671 2.14924 2.66671 2.33333C2.66671 2.51743 2.51747 2.66667 2.33337 2.66667H0.666707C0.482612 2.66667 0.333374 2.51743 0.333374 2.33333Z" fill="black"/>
<path fill-rule="evenodd" clip-rule="evenodd" d="M0.333374 5.66667C0.333374 5.48257 0.482612 5.33333 0.666707 5.33333H2.33337C2.51747 5.33333 2.66671 5.48257 2.66671 5.66667C2.66671 5.85076 2.51747 6 2.33337 6H0.666707C0.482612 6 0.333374 5.85076 0.333374 5.66667Z" fill="black"/>
<path fill-rule="evenodd" clip-rule="evenodd" d="M5.33337 5.66667C5.33337 5.48257 5.48261 5.33333 5.66671 5.33333H7.33337C7.51747 5.33333 7.66671 5.48257 7.66671 5.66667C7.66671 5.85076 7.51747 6 7.33337 6H5.66671C5.48261 6 5.33337 5.85076 5.33337 5.66667Z" fill="black"/>
<path fill-rule="evenodd" clip-rule="evenodd" d="M5.33337 2.33333C5.33337 2.14924 5.48261 2 5.66671 2H7.33337C7.51747 2 7.66671 2.14924 7.66671 2.33333C7.66671 2.51743 7.51747 2.66667 7.33337 2.66667H5.66671C5.48261 2.66667 5.33337 2.51743 5.33337 2.33333Z" fill="black"/>
</svg>
