<svg width="8" height="8" viewBox="0 0 8 8" fill="none" xmlns="http://www.w3.org/2000/svg">
<path fill-rule="evenodd" clip-rule="evenodd" d="M3.99999 0.333332C4.12686 0.333332 4.24273 0.405356 4.29889 0.519124L5.25141 2.44882L7.38153 2.76017C7.50705 2.77852 7.61128 2.86652 7.6504 2.98719C7.68953 3.10786 7.65677 3.24027 7.5659 3.32878L6.02483 4.82979L6.38853 6.95032C6.40998 7.07538 6.35856 7.20177 6.2559 7.27635C6.15324 7.35093 6.01714 7.36075 5.90484 7.30169L3.99999 6.29995L2.09514 7.30169C1.98283 7.36075 1.84674 7.35093 1.74408 7.27635C1.64142 7.20177 1.59 7.07538 1.61145 6.95032L1.97515 4.82979L0.434078 3.32878C0.343206 3.24027 0.310448 3.10786 0.349574 2.98719C0.3887 2.86652 0.492927 2.77852 0.618447 2.76017L2.74857 2.44882L3.70109 0.519124C3.75724 0.405356 3.87312 0.333332 3.99999 0.333332ZM3.99999 1.41975L3.26889 2.90087C3.22038 2.99916 3.12665 3.06731 3.0182 3.08316L1.38279 3.3222L2.5659 4.47455C2.64452 4.55113 2.68041 4.6615 2.66186 4.76968L2.38272 6.39722L3.84484 5.62831C3.94197 5.57723 4.05801 5.57723 4.15514 5.62831L5.61726 6.39722L5.33812 4.76968C5.31957 4.6615 5.35545 4.55113 5.43408 4.47455L6.61719 3.3222L4.98178 3.08316C4.87333 3.06731 4.7796 2.99916 4.73109 2.90087L3.99999 1.41975Z" fill="black"/>
</svg>
